<svg width="1005" height="235" viewBox="0 0 1005 235" fill="none" xmlns="http://www.w3.org/2000/svg">
<path opacity="0.9" d="M868.45 229.5V228.9H901.45V5.10001H871.3C862.5 5.10001 855.25 6.80001 849.55 10.2C843.85 13.5 839.35 18.2 836.05 24.3C832.75 30.3 830.4 37.4 829 45.6C827.7 53.7 827.05 62.5 827.05 72H826.45V4.5H1004.95V72H1004.2C1004.2 62.5 1003.5 53.7 1002.1 45.6C1000.8 37.4 998.5 30.3 995.2 24.3C991.9 18.2 987.35 13.5 981.55 10.2C975.85 6.80001 968.6 5.10001 959.8 5.10001H929.95V228.9H962.95V229.5H868.45Z" fill="black"/>
<path opacity="0.9" d="M826.45 4.5V5.10001H796.75V160.5C796.75 185.2 791.6 203.65 781.3 215.85C771 227.95 754 234 730.3 234C704.4 234 685.4 228.25 673.3 216.75C661.3 205.15 655.3 186.4 655.3 160.5V5.10001H628.45V4.5H713.95V5.10001H683.95V157.5C683.95 167.4 684.65 176.85 686.05 185.85C687.55 194.85 690.15 202.85 693.85 209.85C697.65 216.85 702.95 222.4 709.75 226.5C716.65 230.5 725.5 232.5 736.3 232.5C749.7 232.5 760.8 229.9 769.6 224.7C778.5 219.4 785.15 211.45 789.55 200.85C793.95 190.15 796.15 176.7 796.15 160.5V5.10001H767.8V4.5H826.45Z" fill="black"/>
<path opacity="0.9" d="M532.6 234.5C517.4 234.5 503.85 231.55 491.95 225.65C480.05 219.65 469.95 211.35 461.65 200.75C453.45 190.15 447.2 177.9 442.9 164C438.6 150 436.45 135 436.45 119C436.45 103 438.7 88.05 443.2 74.15C447.8 60.15 454.3 47.85 462.7 37.25C471.2 26.65 481.35 18.4 493.15 12.5C504.95 6.5 518.1 3.5 532.6 3.5C547.1 3.5 560.2 6.5 571.9 12.5C583.7 18.4 593.8 26.65 602.2 37.25C610.7 47.85 617.2 60.15 621.7 74.15C626.2 88.05 628.45 103 628.45 119C628.45 135 626.3 150 622 164C617.8 177.9 611.6 190.15 603.4 200.75C595.2 211.35 585.15 219.65 573.25 225.65C561.35 231.55 547.8 234.5 532.6 234.5ZM532.6 233.9C545.7 233.9 556.25 230.55 564.25 223.85C572.35 217.05 578.55 208.1 582.85 197C587.15 185.8 590.05 173.4 591.55 159.8C593.15 146.2 593.95 132.55 593.95 118.85C593.95 105.25 593.05 91.7 591.25 78.2C589.45 64.6 586.25 52.25 581.65 41.15C577.15 29.95 570.9 21 562.9 14.3C555 7.50001 544.9 4.10001 532.6 4.10001C520.3 4.10001 510.15 7.50001 502.15 14.3C494.15 21 487.85 29.95 483.25 41.15C478.75 52.25 475.55 64.6 473.65 78.2C471.85 91.7 470.95 105.25 470.95 118.85C470.95 132.55 471.75 146.2 473.35 159.8C474.95 173.4 477.9 185.8 482.2 197C486.5 208.1 492.7 217.05 500.8 223.85C509 230.55 519.6 233.9 532.6 233.9Z" fill="black"/>
<path opacity="0.9" d="M220.898 229.5V228.9H310.748C319.348 228.9 327.298 226.2 334.598 220.8C341.898 215.3 347.748 207.85 352.148 198.45C356.648 189.05 358.898 178.4 358.898 166.5C358.898 154.6 356.648 144.8 352.148 137.1C347.748 129.4 341.898 123.7 334.598 120C327.298 116.2 319.348 114.3 310.748 114.3H274.898V113.7H313.898C327.998 113.7 340.948 115.4 352.748 118.8C364.548 122.2 373.998 127.75 381.098 135.45C388.198 143.15 391.748 153.5 391.748 166.5C391.748 189 384.798 205.15 370.898 214.95C357.098 224.65 338.098 229.5 313.898 229.5H220.898ZM247.748 229.2V4.80001H276.398V229.2H247.748ZM274.898 114.3V113.7H307.898C315.498 113.7 322.698 111.95 329.498 108.45C336.398 104.95 341.998 99.5 346.298 92.1C350.698 84.6 352.898 74.9 352.898 63C352.898 51.1 350.698 40.85 346.298 32.25C341.998 23.55 336.398 16.85 329.498 12.15C322.698 7.45 315.498 5.10001 307.898 5.10001H220.898V4.5H307.898C330.598 4.5 348.748 8.9 362.348 17.7C376.048 26.4 382.898 40.5 382.898 60C382.898 79.5 376.448 93.45 363.548 101.85C350.648 110.15 332.098 114.3 307.898 114.3H274.898Z" fill="black"/>
<path opacity="0.9" d="M54.6 156.6V156H150V156.6H54.6ZM109.35 0L188.7 228.9H210V229.5H123V228.9H155.85L95.25 41.1L29.55 228.9H66V229.5H0V228.9H28.95L108.75 0H109.35Z" fill="black"/>
</svg>
