<svg width="856" height="234" viewBox="0 0 856 234" fill="none" xmlns="http://www.w3.org/2000/svg">
<path opacity="0.9" d="M853.405 3V3.60001H823.705V159C823.705 183.7 818.455 202.15 807.955 214.35C797.455 226.45 780.255 232.5 756.355 232.5C729.855 232.5 710.455 226.75 698.155 215.25C685.855 203.65 679.705 184.9 679.705 159V3.60001H652.855V3H743.455V3.60001H713.455V156C713.455 165.9 714.105 175.35 715.405 184.35C716.805 193.25 719.305 201.2 722.905 208.2C726.505 215.2 731.605 220.7 738.205 224.7C744.805 228.7 753.355 230.7 763.855 230.7C776.855 230.7 787.755 228.1 796.555 222.9C805.355 217.7 811.955 209.8 816.355 199.2C820.855 188.6 823.105 175.2 823.105 159V3.60001H794.755V3H853.405Z" fill="black"/>
<path opacity="0.9" d="M462.55 3V227.4H498.4V228H432.25V227.4H461.95V3.60001H432.25V3H462.55ZM642.25 3V3.60001H610.75V231H610.15L462.25 3H502.45L610.15 173.85V3.60001H574.6V3H642.25Z" fill="black"/>
<path opacity="0.9" d="M253.832 228V227.4H280.682V3.60001H253.832V3H414.932V64.5H414.482C414.082 53.8 411.882 43.85 407.882 34.65C403.882 25.35 397.932 17.85 390.032 12.15C382.232 6.45001 372.482 3.60001 360.782 3.60001H314.432V227.4H357.782C371.482 227.4 382.632 224.5 391.232 218.7C399.832 212.8 406.232 204.8 410.432 194.7C414.732 184.6 417.082 173.2 417.482 160.5H418.082V228H253.832ZM364.832 145.8C364.332 139.1 362.432 133.2 359.132 128.1C355.832 123 351.632 119.05 346.532 116.25C341.432 113.35 336.032 111.9 330.332 111.9H302.132V111.3H330.332C336.032 111.3 341.432 110 346.532 107.4C351.632 104.8 355.832 101.1 359.132 96.3C362.432 91.4 364.332 85.6 364.832 78.9H365.432V145.8H364.832Z" fill="black"/>
<path opacity="0.9" d="M107.8 231L24.3996 3H58.1496L124.6 182.25L188.2 3H188.8L108.4 231H107.8ZM24.6996 3V227.4H47.9496V228H2.34963V227.4H24.0996V3.60001H0.999634V3H24.6996ZM243.1 3V3.60001H222.1V227.4H243.1V228H164.35V227.4H188.5V3H243.1Z" fill="black"/>
<path opacity="0.95" d="M714.199 154V1.59961H744.199V1H653.6V1.59961H680.449V157L680.454 158.209C680.643 183.484 686.792 201.831 698.899 213.25C711.007 224.57 729.995 230.319 755.862 230.496L757.1 230.5C780.999 230.5 798.199 224.45 808.699 212.35C819.035 200.34 824.284 182.275 824.445 158.153L824.449 157V1.59961H854.149V1H795.499V1.59961H823.85V157L823.843 158.511C823.707 174.035 821.459 186.931 817.1 197.2C812.7 207.8 806.099 215.7 797.299 220.9C788.499 226.1 777.599 228.7 764.6 228.7V227.7C777.468 227.7 788.181 225.126 796.79 220.039C805.381 214.963 811.848 207.242 816.176 196.816L816.179 196.81L816.588 195.822C820.747 185.541 822.85 172.613 822.85 157V2.59961H794.499V0H855.149V2.59961H825.449V157L825.445 158.159C825.283 182.401 820.01 200.74 809.457 213.002L809.454 213.006C798.687 225.414 781.145 231.5 757.1 231.5C730.901 231.5 711.4 225.908 698.811 214.526L698.216 213.98L698.213 213.978C685.627 202.108 679.449 183.03 679.449 157V2.59961H652.6V0H745.199V2.59961H715.199V154L715.207 155.843C715.283 165.025 715.926 173.809 717.137 182.194C718.522 191.004 720.993 198.85 724.538 205.742C727.945 212.368 732.719 217.606 738.868 221.475L739.468 221.845C745.865 225.722 754.219 227.7 764.6 227.7V228.7L763.62 228.694C753.891 228.577 745.875 226.702 739.573 223.069L738.949 222.7C732.555 218.825 727.57 213.542 723.991 206.852L723.649 206.2C720.049 199.2 717.549 191.25 716.149 182.35C714.931 173.912 714.283 165.079 714.207 155.851L714.199 154Z" fill="black"/>
<path opacity="0.95" d="M527.351 4L527.646 4.4668L633.499 172.388V6.59961H597.949V4H667.6V6.59961H636.1V234H633.956L487.899 8.84082V228.4H523.749V231H455.6V228.4H485.299V6.59961H455.6V4H527.351ZM456.6 5V5.59961H486.299V229.4H456.6V230H522.749V229.4H486.899V5.46191L634.499 233H635.1V5.59961H666.6V5H598.949V5.59961H634.499V175.85L526.799 5H456.6Z" fill="black"/>
<path opacity="0.9" d="M267.6 2V2.59961H294.449V226.4H267.6V227H431.85V159.5H431.249C430.849 172.2 428.499 183.6 424.199 193.7C419.999 203.8 413.599 211.8 404.999 217.7C396.399 223.5 385.249 226.4 371.549 226.4H328.199V110.9H344.1C349.799 110.9 355.199 112.35 360.299 115.25C365.399 118.05 369.599 122 372.899 127.1C376.096 132.04 377.979 137.732 378.548 144.174L378.6 144.8H379.199V77.9004H378.6C378.1 84.6001 376.199 90.3999 372.899 95.2998C369.599 100.1 365.399 103.8 360.299 106.4L359.82 106.64C354.862 109.08 349.621 110.3 344.1 110.3H328.199V2.59961H374.549C386.249 2.59961 395.999 5.45042 403.799 11.1504C411.699 16.8504 417.649 24.3504 421.649 33.6504C425.524 42.5628 427.71 52.179 428.206 62.499L428.249 63.5H428.699V2H267.6ZM429.699 64.5H427.286L427.25 63.5371C426.867 53.2841 424.813 43.742 421.097 34.9023L420.732 34.0488L420.73 34.0449C416.799 24.9044 410.961 17.5507 403.214 11.9609L403.209 11.957C395.614 6.40689 386.082 3.59961 374.549 3.59961H329.199V109.3H344.1L345.135 109.285C350.295 109.137 355.195 107.879 359.845 105.509C364.791 102.987 368.863 99.4026 372.069 94.7412C375.26 90.0041 377.113 84.3761 377.602 77.8252L377.671 76.9004H380.199V145.8H377.671L377.602 144.874C377.128 138.528 375.374 132.948 372.355 128.109L372.06 127.644C368.946 122.832 365.02 119.084 360.279 116.385L359.818 116.127L359.805 116.119C355.006 113.39 349.947 111.989 344.616 111.904L344.1 111.9H329.199V225.4H371.549L372.813 225.392C385.791 225.218 396.307 222.353 404.434 216.875L405.218 216.327C413.257 210.598 419.275 202.937 423.275 193.316L423.279 193.309C427.524 183.339 429.853 172.064 430.25 159.469L430.28 158.5H432.85V228H266.6V225.4H293.449V3.59961H266.6V1H429.699V64.5Z" fill="black"/>
<path opacity="0.9" d="M58.8457 2L124.578 179.317L187.493 2H244.1V4.59961H223.1V226.4H244.1V229H163.35V226.4H187.5V9.69336L109.107 232H107.101L25.6992 9.46191V226.4H48.9492V229H1.34961V226.4H23.0996V4.59961H0V2H58.8457ZM1 3V3.59961H24.0996V227.4H2.34961V228H47.9492V227.4H24.6992V3.81934L107.8 231H108.399L188.5 3.84961V227.4H164.35V228H243.1V227.4H222.1V3.59961H243.1V3H188.199L124.6 182.25L58.1494 3H1Z" fill="black"/>
</svg>
